<svg version="1.1" xmlns="http://www.w3.org/2000/svg" xmlns:xlink="http://www.w3.org/1999/xlink" xmlns:a="http://ns.adobe.com/AdobeSVGViewerExtensions/3.0/" x="0px" y="0px" width="14px" height="14px" viewBox="0 0 14 14" enable-background="new 0 0 14 14" xml:space="preserve">
    <defs>
    </defs>
    <g>
        <path fill="#707070" d="M9.349,1.602c-2.136-2.136-5.612-2.136-7.748,0c-2.135,2.136-2.135,5.612,0,7.748
		c1.902,1.901,4.864,2.105,6.999,0.62c0.045,0.213,0.148,0.415,0.313,0.581l3.11,3.11c0.453,0.452,1.186,0.452,1.637,0
		c0.453-0.453,0.453-1.185,0-1.637l-3.11-3.111c-0.164-0.164-0.368-0.267-0.58-0.312C11.456,6.466,11.252,3.505,9.349,1.602z
		 M8.367,8.368c-1.595,1.594-4.19,1.594-5.784,0c-1.594-1.594-1.594-4.189,0-5.783c1.594-1.594,4.189-1.594,5.784,0
		C9.962,4.179,9.962,6.773,8.367,8.368z" />
    </g>
</svg>
